<svg version="1.1" xmlns="http://www.w3.org/2000/svg" xmlns:xlink="http://www.w3.org/1999/xlink" viewBox="0 0 172 172"><g fill="none" fill-rule="nonzero" stroke="none" stroke-width="1" stroke-linecap="butt" stroke-linejoin="miter" stroke-miterlimit="10" stroke-dasharray="" stroke-dashoffset="0" font-family="none" font-weight="none" font-size="none" text-anchor="none" style="mix-blend-mode: normal"><path d="M0,172v-172h172v172z" fill="none"></path><g><path d="M110.36667,65.21667c-8.6,2.50833 -12.9,12.18333 -7.525,19.35c-3.225,1.79167 -7.525,5.73333 -11.46667,11.825c-0.35833,-15.76667 1.075,-31.175 4.65833,-42.28333c5.01667,5.01667 11.10833,4.3 16.48333,-0.35833c9.675,-8.6 1.075,-29.025 5.375,-35.475c-5.01667,0 -24.725,1.79167 -32.96667,11.825c-5.375,6.80833 -3.225,16.48333 5.73333,18.275c-5.01667,12.18333 -6.80833,29.74167 -6.80833,46.94167c-2.86667,-4.3 -6.80833,-8.6 -11.825,-11.825c10.03333,-7.88333 7.16667,-20.425 -3.225,-25.8c-15.40833,-8.6 -40.85,0.71667 -47.3,3.225c9.31667,5.73333 8.6,35.83333 25.8,41.56667c11.10833,3.58333 19.70833,0 21.85833,-13.25833c14.33333,10.39167 16.84167,29.025 17.2,29.38333c0.35833,1.79167 1.79167,3.225 3.58333,3.225h0.35833c1.79167,-0.35833 3.225,-1.79167 3.225,-3.58333v0c0,-13.975 6.45,-21.85833 11.10833,-25.44167c0.35833,8.95833 6.45,12.54167 15.05,11.825c13.975,-1.79167 19.35,-25.44167 27.59167,-28.66667c-4.65833,-3.58333 -23.29167,-14.33333 -36.90833,-10.75z" fill="#8bc34a"></path><path d="M47.3,102.48333c-17.2,-5.73333 -16.48333,-35.83333 -25.8,-41.56667v0c8.24167,0.71667 20.78333,7.525 48.01667,24.36667v0c-1.075,16.48333 -10.03333,21.14167 -22.21667,17.2zM119.325,103.91667c13.975,-1.79167 19.35,-25.44167 27.59167,-28.66667v0c-6.45,-0.71667 -18.63333,2.50833 -42.28333,11.10833v0c-2.15,13.25833 4.65833,18.63333 14.69167,17.55833zM112.875,53.39167c11.10833,-10.75 1.075,-29.025 5.375,-35.475v0c-5.375,2.86667 -12.9,11.46667 -25.8,30.45833v0c5.375,10.75 13.25833,11.10833 20.425,5.01667z" fill="#689f38"></path><path d="M32.25,150.5h34.75833h45.15h14.69167h18.63333c2.86667,-2.50833 5.01667,-6.45 5.01667,-10.75c0,-7.88333 -6.45,-14.33333 -14.33333,-14.33333c-1.43333,0 -2.86667,0.35833 -4.3,0.71667c-2.15,-6.80833 -8.24167,-11.46667 -15.40833,-11.46667c-4.65833,0 -8.95833,2.15 -11.825,5.01667c-3.94167,-3.225 -9.31667,-5.01667 -15.05,-5.01667c-7.525,0 -14.33333,3.225 -18.99167,8.6c-1.79167,-0.71667 -3.94167,-1.43333 -6.09167,-1.43333c-3.94167,0 -7.16667,1.43333 -9.675,3.94167c-2.15,-2.50833 -5.01667,-3.94167 -8.24167,-3.94167c-5.01667,0 -8.95833,3.225 -10.39167,7.88333c-1.075,-0.35833 -2.50833,-0.71667 -3.94167,-0.71667c-6.09167,0 -10.75,4.65833 -10.75,10.75c0,6.09167 4.65833,10.75 10.75,10.75z" fill="#795548"></path><path d="M136.16667,143.33333v0c0,-6.09167 -4.65833,-10.75 -10.75,-10.75c-5.375,0 -9.675,3.94167 -10.39167,8.6c-2.86667,-2.86667 -6.80833,-5.01667 -11.10833,-5.01667c-4.65833,0 -8.95833,2.50833 -11.46667,6.09167c-1.79167,-5.73333 -7.16667,-9.675 -13.61667,-9.675c-3.94167,0 -7.16667,1.43333 -9.675,3.94167c-2.15,-2.50833 -5.01667,-3.94167 -8.24167,-3.94167c-5.01667,0 -8.95833,3.225 -10.39167,7.88333c-1.075,-0.35833 -2.50833,-0.71667 -3.94167,-0.71667c-6.80833,0 -12.18333,4.65833 -13.975,10.75h93.16667h7.525h10.03333c-0.71667,-3.58333 -3.58333,-6.45 -7.16667,-7.16667z" fill="#8d6e63"></path></g></g></svg>