<svg version="1.1" xmlns="http://www.w3.org/2000/svg" xmlns:xlink="http://www.w3.org/1999/xlink" viewBox="0 0 172 172"><g fill="none" fill-rule="nonzero" stroke="none" stroke-width="1" stroke-linecap="butt" stroke-linejoin="miter" stroke-miterlimit="10" stroke-dasharray="" stroke-dashoffset="0" font-family="none" font-weight="none" font-size="none" text-anchor="none" style="mix-blend-mode: normal"><path d="M0,172v-172h172v172z" fill="none"></path><g><rect x="23" y="29" transform="scale(3.58333,3.58333)" width="2" height="17" fill="#7cb342"></rect><path d="M89.58333,149.90158c0,0 3.49017,-32.4435 53.75,-40.72817c-4.18892,24.854 -32.11025,40.04017 -53.75,40.72817z" fill="#7cb342"></path><path d="M82.41667,149.90158c0,0 -3.45075,-32.4435 -53.15158,-40.72817c4.14233,24.854 31.75192,40.04017 53.15158,40.72817z" fill="#7cb342"></path><path d="M82.41667,149.90158c-10.75,-10.15158 -35.83333,-28.06825 -53.15158,-40.72458c4.14233,24.85042 31.75192,40.03658 53.15158,40.72458z" fill="#1abc9c"></path><path d="M90.18175,149.90158c10.75,-10.15158 35.83333,-28.06825 53.15158,-40.72458c-4.14233,24.85042 -31.75192,40.03658 -53.15158,40.72458z" fill="#1abc9c"></path><path d="M78.83333,25.08333h14.33333v-5.41442c0,-4.56158 -1.45125,-8.93683 -4.03125,-12.16542l-3.13542,-3.92017l-3.13542,3.92017c-2.58,3.225 -4.03125,7.60025 -4.03125,12.16542z" fill="#ffd600"></path><path d="M93.16667,89.58333h-14.33333v5.41442c0,4.56158 1.45125,8.93683 4.03125,12.16542l3.13542,3.92017l3.13542,-3.92017c2.58,-3.225 4.03125,-7.60025 4.03125,-12.16542z" fill="#ffd600"></path><path d="M58.12883,39.59583l10.13367,-10.13367l-3.83058,-3.83058c-3.225,-3.225 -7.34583,-5.29617 -11.45233,-5.75125l-4.988,-0.55542l0.55542,4.988c0.45508,4.1065 2.52625,8.22375 5.75125,11.45233z" fill="#ffd600"></path><path d="M113.87117,75.07083l-10.13367,10.13367l3.83058,3.83058c3.225,3.225 7.34583,5.29617 11.45233,5.75125l4.988,0.55542l-0.55542,-4.988c-0.45508,-4.1065 -2.52625,-8.22375 -5.75125,-11.45233z" fill="#ffd600"></path><path d="M103.7375,29.46217l10.13367,10.13367l3.83058,-3.83058c3.225,-3.225 5.29617,-7.34583 5.75125,-11.45233l0.55542,-4.988l-4.988,0.55542c-4.1065,0.45508 -8.22375,2.52625 -11.45233,5.75125z" fill="#ffd600"></path><path d="M68.2625,85.2045l-10.13367,-10.13367l-3.83058,3.83058c-3.225,3.225 -5.29617,7.34583 -5.75125,11.45233l-0.55542,4.988l4.988,-0.55542c4.1065,-0.45508 8.22375,-2.52625 11.45233,-5.75125z" fill="#ffd600"></path><path d="M91.83367,24.81458l13.2225,5.52908l2.08908,-4.99517c1.75942,-4.21042 2.11058,-8.80425 0.97467,-12.77817l-1.37958,-4.82675l-4.40392,2.408c-3.62633,1.98158 -6.65067,5.45742 -8.41367,9.66783z" fill="#ffd600"></path><path d="M80.16633,89.85208l-13.2225,-5.52908l-2.08908,4.99517c-1.75942,4.21042 -2.11058,8.80425 -0.97467,12.77817l1.37958,4.82675l4.40392,-2.408c3.62633,-1.98158 6.65067,-5.45742 8.41367,-9.66783z" fill="#ffd600"></path><path d="M80.16633,24.81458l-13.2225,5.52908l-2.08908,-4.99517c-1.75942,-4.20683 -2.11058,-8.80425 -0.97467,-12.77817l1.37958,-4.82675l4.40392,2.408c3.62633,1.98158 6.65067,5.45742 8.41367,9.66783z" fill="#ffd600"></path><path d="M91.83367,89.85208l13.2225,-5.52908l2.08908,4.99517c1.75942,4.21042 2.11058,8.80425 0.97467,12.77817l-1.37958,4.82675l-4.40392,-2.408c-3.62633,-1.98158 -6.65067,-5.45742 -8.41367,-9.66783z" fill="#ffd600"></path><path d="M113.12583,38.47783l5.43233,13.26192l5.01308,-2.05325c4.22117,-1.73075 7.72208,-4.73 9.72875,-8.342l2.44025,-4.386l-4.816,-1.41542c-3.96317,-1.16458 -8.56058,-0.84925 -12.78533,0.8815z" fill="#ffd600"></path><path d="M58.87417,76.18883l-5.43233,-13.26192l-5.01308,2.05325c-4.22117,1.73075 -7.72208,4.73 -9.72875,8.342l-2.44025,4.386l4.816,1.41542c3.96317,1.16458 8.56058,0.84925 12.78533,-0.8815z" fill="#ffd600"></path><path d="M58.87417,38.47783l-5.43233,13.26192l-5.01308,-2.05325c-4.22117,-1.73075 -7.72208,-4.73 -9.72875,-8.342l-2.44025,-4.386l4.816,-1.41542c3.96317,-1.16458 8.56058,-0.84925 12.78533,0.8815z" fill="#ffd600"></path><path d="M113.12583,76.18883l5.43233,-13.26192l5.01308,2.05325c4.22117,1.73075 7.72208,4.73 9.72875,8.342l2.44025,4.386l-4.816,1.41542c-3.96317,1.16458 -8.56058,0.84925 -12.78533,-0.8815z" fill="#ffd600"></path><path d="M118.25,50.16667v14.33333h5.41442c4.56158,0 8.93683,-1.45125 12.16542,-4.03125l3.92017,-3.13542l-3.92017,-3.13542c-3.225,-2.58 -7.60025,-4.03125 -12.16542,-4.03125z" fill="#ffd600"></path><path d="M53.75,64.5v-14.33333h-5.41442c-4.56158,0 -8.93683,1.45125 -12.16542,4.03125l-3.92017,3.13542l3.92017,3.13542c3.225,2.58 7.60025,4.03125 12.16542,4.03125z" fill="#ffd600"></path><circle cx="24" cy="16" transform="scale(3.58333,3.58333)" r="10" fill="#a1887f"></circle><circle cx="24" cy="16" transform="scale(3.58333,3.58333)" r="8" fill="#4e342e"></circle></g></g></svg>