<svg version="1.1" xmlns="http://www.w3.org/2000/svg" xmlns:xlink="http://www.w3.org/1999/xlink" viewBox="0 0 172 172"><g fill="none" fill-rule="nonzero" stroke="none" stroke-width="1" stroke-linecap="butt" stroke-linejoin="miter" stroke-miterlimit="10" stroke-dasharray="" stroke-dashoffset="0" font-family="none" font-weight="none" font-size="none" text-anchor="none" style="mix-blend-mode: normal"><path d="M0,172v-172h172v172z" fill="none"></path><g fill="#000000"><path d="M12.76563,9.40625c1.6125,0 2.95625,1.075 3.225,2.6875l24.45625,122.55c1.075,5.375 5.77813,9.1375 11.15313,9.1375h1.6125c5.24062,0 9.80937,-3.49375 11.01875,-8.6l17.33437,-69.47188c0.40313,-1.47813 1.74688,-2.55313 3.225,-2.55313h1.88125c1.47812,0 2.82187,1.075 3.225,2.55313l10.88437,42.59688c1.20938,5.10625 5.77813,8.6 11.01875,8.6h1.88125c5.24063,0 9.80938,-3.49375 11.01875,-8.6l16.125,-64.36562c0.5375,-2.15 -0.80625,-4.3 -2.95625,-4.8375c-2.15,-0.5375 -4.3,0.80625 -4.8375,2.95625l-16.125,64.36562c-0.40312,1.47812 -1.74687,2.55313 -3.225,2.55313h-1.88125c-1.47812,0 -2.82187,-1.075 -3.225,-2.55313l-10.48125,-42.73125c-1.34375,-5.10625 -5.9125,-8.6 -11.15313,-8.6h-1.88125c-5.24062,0 -9.80937,3.49375 -11.01875,8.6l-17.46875,69.47188c-0.40312,1.47812 -1.74687,2.55312 -3.225,2.55312h-1.6125c-1.6125,0 -2.95625,-1.075 -3.225,-2.6875l-24.59062,-122.55c-1.075,-5.24062 -5.77812,-9.1375 -11.15312,-9.1375c-6.31562,0 -11.42187,5.10625 -11.42187,11.42188v140.42188c0,9.675 7.79375,17.46875 17.46875,17.46875h114.21875c2.28438,0 4.03125,-1.74687 4.03125,-4.03125c0,-2.28438 -1.74687,-4.03125 -4.03125,-4.03125h-114.21875c-5.24062,0 -9.40625,-4.16563 -9.40625,-9.40625v-140.42187c0,-1.88125 1.47813,-3.35937 3.35938,-3.35937zM159.90625,170.65625h6.71875c2.28438,0 4.03125,-1.74687 4.03125,-4.03125c0,-2.28438 -1.74687,-4.03125 -4.03125,-4.03125h-6.71875c-2.28438,0 -4.03125,1.74687 -4.03125,4.03125c0,2.28438 1.74687,4.03125 4.03125,4.03125z"></path></g></g></svg>