<svg version="1.1" xmlns="http://www.w3.org/2000/svg" xmlns:xlink="http://www.w3.org/1999/xlink" viewBox="0 0 172 172"><defs><linearGradient x1="86" y1="11.96833" x2="86" y2="119.325" gradientUnits="userSpaceOnUse" id="color-1"><stop offset="0" stop-color="#ffda1c"></stop><stop offset="1" stop-color="#f1c40f"></stop></linearGradient><radialGradient cx="73.18958" cy="127.39825" r="41.94292" gradientUnits="userSpaceOnUse" id="color-2"><stop offset="0" stop-color="#6e757b"></stop><stop offset="1" stop-color="#4a4e52"></stop></radialGradient><linearGradient x1="86" y1="11.96833" x2="86" y2="119.325" gradientUnits="userSpaceOnUse" id="color-3"><stop offset="0" stop-color="#ffda1c"></stop><stop offset="1" stop-color="#f1c40f"></stop></linearGradient></defs><g fill="none" fill-rule="nonzero" stroke="none" stroke-width="1" stroke-linecap="butt" stroke-linejoin="miter" stroke-miterlimit="10" stroke-dasharray="" stroke-dashoffset="0" font-family="none" font-weight="none" font-size="none" text-anchor="none" style="mix-blend-mode: normal"><path d="M0,172v-172h172v172z" fill="none"></path><g id="Layer_1"><path d="M150.5,39.41667c0,-0.35833 0,-0.71667 0,-1.43333c0,-15.40833 -32.60833,-23.65 -64.5,-23.65c-31.89167,0 -64.5,8.24167 -64.5,23.65c0,0.35833 0,0.71667 0,1.43333z" fill="url(#color-1)"></path><path d="M86,157.66667v0c-13.975,0 -25.08333,-11.10833 -25.08333,-25.08333v-10.75h50.16667v10.75c0,13.975 -11.10833,25.08333 -25.08333,25.08333z" fill="url(#color-2)"></path><path d="M21.5,39.41667c0.35833,22.21667 12.9,33.325 23.29167,42.64167c7.16667,6.45 16.125,12.18333 16.125,18.99167v20.78333h50.16667v-21.5c0,-6.80833 9.31667,-11.825 16.125,-18.275c10.03333,-8.95833 22.575,-20.425 23.29167,-42.64167z" fill="url(#color-3)"></path></g></g></svg>