<svg version="1.1" xmlns="http://www.w3.org/2000/svg" xmlns:xlink="http://www.w3.org/1999/xlink" viewBox="0 0 172 172"><g fill="none" fill-rule="nonzero" stroke="none" stroke-width="1" stroke-linecap="butt" stroke-linejoin="miter" stroke-miterlimit="10" stroke-dasharray="" stroke-dashoffset="0" font-family="none" font-weight="none" font-size="none" text-anchor="none" style="mix-blend-mode: normal"><path d="M0,172v-172h172v172z" fill="none"></path><g><path d="M86,89.58333v0c-2.15,0 -3.58333,-1.79167 -3.58333,-3.58333c0,-0.35833 0.35833,-20.06667 -11.825,-27.59167c-1.79167,-1.075 -2.15,-3.225 -1.075,-5.01667c1.075,-1.79167 3.225,-2.15 5.01667,-1.075c15.76667,10.03333 15.40833,32.96667 15.40833,34.04167c-0.35833,1.79167 -2.15,3.225 -3.94167,3.225z" fill="#8bc34a"></path><path d="M72.38333,25.08333c-17.2,-8.6 -44.075,1.075 -50.88333,3.58333c10.03333,6.09167 8.6,39.05833 26.875,45.15c12.9,4.3 22.93333,-0.71667 24.00833,-18.63333c14.33333,-8.24167 12.18333,-24.00833 0,-30.1zM86,100.33333c-2.15,0 -3.58333,-1.43333 -3.58333,-3.58333v-10.75c0,-27.95 20.78333,-32.25 20.78333,-32.25c1.79167,-0.35833 3.94167,1.075 4.3,2.86667c0.35833,1.79167 -1.075,3.94167 -2.86667,4.3c-0.71667,0 -15.05,3.225 -15.05,25.08333v10.75c0,2.15 -1.43333,3.58333 -3.58333,3.58333z" fill="#8bc34a"></path><path d="M108.21667,29.74167c15.76667,-5.01667 37.26667,9.675 42.28333,13.25833c-9.31667,3.58333 -15.40833,33.325 -31.89167,35.475c-11.46667,1.43333 -17.55833,-4.65833 -14.69167,-21.14167c-12.9,-10.03333 -6.80833,-24.36667 4.3,-27.59167z" fill="#8bc34a"></path><path d="M48.375,73.81667c-18.275,-6.09167 -16.84167,-39.05833 -26.875,-45.15c8.95833,0.71667 21.85833,8.6 50.88333,26.51667c-1.075,17.91667 -10.75,22.93333 -24.00833,18.63333zM118.96667,78.475c16.125,-2.15 22.21667,-31.89167 31.89167,-35.475c-7.525,-1.075 -19.35,3.225 -46.58333,14.33333c-6.09167,16.125 2.86667,22.93333 14.69167,21.14167z" fill="#689f38"></path><path d="M46.58333,96.75l10.75,53.75h57.33333l10.75,-53.75z" fill="#e64a19"></path><path d="M125.41667,107.5h-78.83333c-2.15,0 -3.58333,-1.79167 -3.58333,-3.58333v-14.33333h86v14.33333c0,1.79167 -1.79167,3.58333 -3.58333,3.58333z" fill="#bf360c"></path></g></g></svg>