<svg version="1.1" xmlns="http://www.w3.org/2000/svg" xmlns:xlink="http://www.w3.org/1999/xlink" viewBox="0 0 172 172"><g fill="none" fill-rule="nonzero" stroke="none" stroke-width="1" stroke-linecap="butt" stroke-linejoin="miter" stroke-miterlimit="10" stroke-dasharray="" stroke-dashoffset="0" font-family="none" font-weight="none" font-size="none" text-anchor="none" style="mix-blend-mode: normal"><path d="M0,172v-172h172v172z" fill="none"></path><g><path d="M129,94.6l-5.719,44.32096c-0.66392,5.14624 -5.04648,8.99904 -10.23572,8.99904h-54.09056c-5.18924,0 -9.5718,-3.8528 -10.23572,-8.99904l-5.719,-44.32096h-3.44c-1.9006,0 -3.44,-1.5394 -3.44,-3.44v-12.04c0,-1.9006 1.5394,-3.44 3.44,-3.44h92.88c1.9006,0 3.44,1.5394 3.44,3.44v12.04c0,1.9006 -1.5394,3.44 -3.44,3.44z" fill="#eaa871"></path><path d="M39.56,94.6h3.44h86h3.44c1.89888,0 3.44,-1.54112 3.44,-3.44v-12.04c0,-1.9006 -1.54112,-3.44 -3.44,-3.44h-92.88c-1.89888,0 -3.44,1.5394 -3.44,3.44v12.04c0,1.89888 1.54112,3.44 3.44,3.44z" fill="#fdd4b2"></path><path d="M76.8668,41.4176c0,0 5.6932,-5.4352 5.6932,-11.9368c0,-5.0568 -2.8466,-12.2808 -18.50548,-12.2808c-14.94508,0 -22.77452,6.1232 -22.77452,6.1232c6.66156,4.22604 4.98284,29.9968 21.35208,29.9968c12.09848,0 14.23472,-11.9024 14.23472,-11.9024z" fill="#a0d2a1"></path><path d="M94.09948,46.09944c0.22704,3.06848 1.61164,12.38056 10.06372,12.38056c13.0032,0 15.1704,-17.9826 23.1168,-21.5c-16.06308,0 -26.35556,2.43208 -33.18052,9.11944z" fill="#8cc78c"></path><path d="M41.41244,23.22516c-0.08084,0.05848 -0.13244,0.09804 -0.13244,0.09804c6.66156,4.22604 4.98112,29.9968 21.35208,29.9968c12.09848,0 14.23472,-11.9024 14.23472,-11.9024c0,0 0.02236,-0.02236 0.06192,-0.0602c-10.019,-12.384 -27.1072,-18.07548 -35.51628,-18.13224z" fill="#8cc78c"></path><path d="M102.7184,27.52c11.5584,0 21.23168,7.22228 24.5616,9.46c-7.9464,3.5174 -10.1136,21.5 -23.1168,21.5c-10.1136,0 -10.1136,-13.36956 -10.1136,-13.36956c0,0 -2.8896,-2.81392 -2.8896,-7.74c0,-4.92608 3.612,-9.85044 11.5584,-9.85044z" fill="#a0d2a1"></path><g fill="#1f212b"><path d="M113.047,149.64h-54.094c-6.03548,0 -11.16796,-4.51328 -11.94024,-10.49888l-5.52464,-42.82112h-1.92812c-2.84488,0 -5.16,-2.31512 -5.16,-5.16v-12.04c0,-2.84488 2.31512,-5.16 5.16,-5.16h92.88c2.84488,0 5.16,2.31512 5.16,5.16v12.04c0,2.84488 -2.31512,5.16 -5.16,5.16h-1.92812l-5.52464,42.82112c-0.77228,5.9856 -5.90648,10.49888 -11.94024,10.49888zM39.56,77.4c-0.94944,0 -1.72,0.77056 -1.72,1.72v12.04c0,0.94944 0.77056,1.72 1.72,1.72h3.44c0.86516,0 1.59616,0.64156 1.70624,1.49984l5.719,44.32096c0.5504,4.27592 4.21744,7.4992 8.52776,7.4992h54.09228c4.31032,0 7.97736,-3.22328 8.52776,-7.4992l5.719,-44.32096c0.1118,-0.85828 0.8428,-1.49984 1.70796,-1.49984h3.44c0.94944,0 1.72,-0.77056 1.72,-1.72v-12.04c0,-0.94944 -0.77056,-1.72 -1.72,-1.72z"></path><path d="M129.86,94.6h-87.72c-0.47472,0 -0.86,-0.38528 -0.86,-0.86c0,-0.47472 0.38528,-0.86 0.86,-0.86h87.72c0.47472,0 0.86,0.38528 0.86,0.86c0,0.47472 -0.38528,0.86 -0.86,0.86z"></path><path d="M87.72,75.67828h-3.44c0,-26.1096 8.57248,-31.14748 9.55116,-31.63768l1.5394,3.07708c-0.04472,0.0258 -7.65056,4.54768 -7.65056,28.5606z"></path><path d="M84.28172,75.74192c-0.0086,-0.22704 -0.93396,-22.84504 -8.2904,-33.37316l2.81908,-1.97112c7.93952,11.3606 8.87348,34.24692 8.9096,35.217z"></path><path d="M62.63208,55.04c-11.68052,0 -15.19448,-11.7304 -17.759,-20.29772c-1.3502,-4.50984 -2.62644,-8.77028 -4.515,-9.9674c-0.47128,-0.301 -0.76712,-0.81012 -0.79636,-1.36912c-0.02752,-0.55728 0.21844,-1.09564 0.65876,-1.43964c0.33884,-0.26316 8.47272,-6.48612 23.83404,-6.48612c17.59904,0 20.22548,8.772 20.22548,14.0008c0,6.17652 -4.44792,11.32964 -5.8308,12.78132c-1.0578,4.7128 -5.51432,12.77788 -15.81712,12.77788zM44.0406,23.607c1.7888,2.34436 2.89476,6.03204 4.12628,10.148c2.50604,8.36436 5.34576,17.845 14.4652,17.845c10.53844,0 12.46312,-10.05856 12.54052,-10.48684c0.06364,-0.35604 0.24252,-0.68628 0.50396,-0.93912c0.04988,-0.04816 5.16344,-5.02584 5.16344,-10.69324c0,-6.90924 -5.805,-10.5608 -16.78548,-10.5608c-10.25464,0 -17.04692,3.02032 -20.01392,4.687z"></path><path d="M104.1632,60.2c-8.97668,0 -11.62032,-9.07816 -11.81984,-14.42564c-0.95288,-1.16788 -2.90336,-4.09016 -2.90336,-8.4022c0,-5.57452 4.15552,-11.57216 13.2784,-11.57216c11.28836,0 20.72084,6.46548 24.74908,9.22436l0.77228,0.52804c0.52116,0.34916 0.81012,0.9546 0.75336,1.57724c-0.05332,0.62436 -0.44376,1.1696 -1.01652,1.42244c-2.69008,1.19024 -4.816,4.70764 -7.06404,8.42972c-3.74444,6.19544 -7.9894,13.2182 -16.74936,13.2182zM102.7184,29.24c-7.26184,0 -9.8384,4.38084 -9.8384,8.13216c0,4.085 2.34608,6.48612 2.37016,6.50848c0.33024,0.32336 0.51772,0.7654 0.51944,1.22808c0.00172,0.47644 0.13244,11.65128 8.3936,11.65128c6.82152,0 10.3716,-5.87552 13.80472,-11.55668c1.935,-3.20092 3.78744,-6.2694 6.19028,-8.26804c-4.28796,-2.86552 -12.30316,-7.69528 -21.4398,-7.69528z"></path><path d="M76.89604,42.66288c-9.71456,-12.6764 -26.9954,-18.58288 -35.61604,-18.58288v-1.72c8.96292,0 26.91284,6.12148 36.98,19.25712z"></path><path d="M94.35232,47.04372l-1.22636,-1.20572c6.6822,-6.81292 16.89728,-9.718 34.15404,-9.718v1.72c-16.74936,0 -26.59808,2.752 -32.92768,9.20372z"></path><path d="M69.66,35.13272c-0.47472,0 -0.86,-0.38528 -0.86,-0.86c0,-6.49472 3.77712,-8.31792 3.9388,-8.3936c0.43172,-0.1978 0.94256,-0.01204 1.14208,0.41968c0.1978,0.42828 0.01376,0.9374 -0.4128,1.13864c-0.13932,0.0688 -2.94808,1.5222 -2.94808,6.83528c0,0.47472 -0.38528,0.86 -0.86,0.86z"></path><path d="M104.92,40.56964c-0.25972,0 -0.51944,-0.11868 -0.688,-0.344c-0.2838,-0.38012 -0.2064,-0.91848 0.17372,-1.204c2.61784,-1.96424 3.99212,-5.73276 4.00588,-5.76888c0.16168,-0.4472 0.65016,-0.67596 1.09908,-0.52116c0.4472,0.15996 0.68112,0.65188 0.52116,1.09908c-0.06192,0.17544 -1.55316,4.28968 -4.59412,6.56868c-0.15652,0.11524 -0.33884,0.17028 -0.51772,0.17028z"></path><path d="M60.17592,32.7574c-0.26144,0 -0.52116,-0.11696 -0.688,-0.34056c-0.28036,-0.37496 -0.21672,-0.90128 0.15308,-1.18852c0.14964,-0.11524 1.54284,-1.1266 4.859,-1.1266c0.47472,0 0.86,0.38528 0.86,0.86c0,0.47472 -0.38528,0.86 -0.86,0.86c-2.70728,0 -3.80464,0.7654 -3.81496,0.774c-0.15308,0.10836 -0.33196,0.16168 -0.50912,0.16168z"></path><path d="M55.89828,36.11656c-0.13072,0 -0.26316,-0.03096 -0.38872,-0.0946c-0.41968,-0.215 -0.59168,-0.72584 -0.38012,-1.14724c0.03956,-0.08084 0.4214,-0.81356 1.3502,-1.6856c0.34572,-0.32336 0.89096,-0.3096 1.21604,0.03612c0.32508,0.34572 0.3096,0.89096 -0.03612,1.21604c-0.7052,0.66392 -0.99072,1.204 -0.99416,1.20916c-0.1548,0.29584 -0.45408,0.46612 -0.76712,0.46612z"></path><path d="M105.78,45.43896c-0.2924,0 -0.57792,-0.14964 -0.7396,-0.41968c-1.61852,-2.7176 -3.4142,-3.2336 -3.48988,-3.25596c-0.4558,-0.12212 -0.72928,-0.59168 -0.6106,-1.04576c0.11868,-0.45752 0.58824,-0.72584 1.03544,-0.6192c0.1032,0.0258 2.53012,0.6622 4.54596,4.042c0.24424,0.40764 0.10836,0.93568 -0.29928,1.17992c-0.13932,0.08084 -0.29068,0.11868 -0.44204,0.11868z"></path><path d="M107.5,49.73896c-0.39388,0 -0.75164,-0.27176 -0.83936,-0.67424c-0.10836,-0.4816 -0.23564,-0.92536 -0.37496,-1.3502c-0.14964,-0.45236 0.09804,-0.9374 0.54696,-1.08532c0.44892,-0.15308 0.9374,0.09804 1.08532,0.54696c0.15652,0.47472 0.301,0.9718 0.4214,1.51532c0.1032,0.4644 -0.1892,0.92192 -0.6536,1.02684c-0.06192,0.01376 -0.12556,0.02064 -0.18576,0.02064z"></path><path d="M93.74,141.04h-36.12c-0.47472,0 -0.86,-0.38528 -0.86,-0.86c0,-0.47472 0.38528,-0.86 0.86,-0.86h36.12c0.47472,0 0.86,0.38528 0.86,0.86c0,0.47472 -0.38528,0.86 -0.86,0.86z"></path><path d="M107.5,141.04h-8.6c-0.47472,0 -0.86,-0.38528 -0.86,-0.86c0,-0.47472 0.38528,-0.86 0.86,-0.86h8.6c0.47472,0 0.86,0.38528 0.86,0.86c0,0.47472 -0.38528,0.86 -0.86,0.86z"></path><path d="M114.38,141.04h-1.72c-0.47472,0 -0.86,-0.38528 -0.86,-0.86c0,-0.47472 0.38528,-0.86 0.86,-0.86h1.72c0.47472,0 0.86,0.38528 0.86,0.86c0,0.47472 -0.38528,0.86 -0.86,0.86z"></path></g></g></g></svg>