<svg version="1.1" xmlns="http://www.w3.org/2000/svg" xmlns:xlink="http://www.w3.org/1999/xlink" viewBox="0 0 172 172"><g fill="none" fill-rule="nonzero" stroke="none" stroke-width="1" stroke-linecap="butt" stroke-linejoin="miter" stroke-miterlimit="10" stroke-dasharray="" stroke-dashoffset="0" font-family="none" font-weight="none" font-size="none" text-anchor="none" style="mix-blend-mode: normal"><path d="M0,172v-172h172v172z" fill="none"></path><g><path d="M151.79,14.21508c-6.58975,0 -26.05083,2.39725 -40.70667,28.78492c-17.91667,32.25 -21.5,35.83333 -28.66667,43c-7.16667,7.16667 -43,35.83333 -43,35.83333c0,0 -17.91667,14.33333 -21.5,28.66667c0,0 6.96242,7.16667 21.39967,7.16667c14.43725,0 43.10033,0 82.517,-39.41667c28.66667,-32.25 28.66667,-68.08333 28.66667,-68.08333c0,0 0,-7.16667 0,-21.5c0,-11.3305 3.58333,-14.33333 3.58333,-14.33333c0,0 -0.82775,-0.11825 -2.29333,-0.11825z" fill="#7cb342"></path><path d="M117.347,46.47942c-18.404,33.12792 -22.231,36.9585 -29.8635,44.58742c-7.36375,7.36375 -42.11492,35.18117 -43.59125,36.36008c-3.79117,3.04942 -13.12575,11.782 -17.33617,20.339c2.67317,1.32225 6.89433,2.73408 12.76025,2.73408c14.00725,0 40.06167,0 77.29967,-37.16633c26.23,-29.627 26.71375,-62.85525 26.71733,-63.18492v-21.48208c0,-2.24317 0.12183,-4.24983 0.33683,-6.04867c-7.48917,2.23242 -17.64433,8.24167 -26.32317,23.86142z" fill="#388e3c"></path><path d="M123.625,64.5c-4.94755,0 -8.95833,4.01078 -8.95833,8.95833c0,4.94755 4.01078,8.95833 8.95833,8.95833c4.94755,0 8.95833,-4.01078 8.95833,-8.95833c0,-4.94755 -4.01078,-8.95833 -8.95833,-8.95833zM132.58333,39.41667c-3.95804,0 -7.16667,3.20863 -7.16667,7.16667c0,3.95804 3.20863,7.16667 7.16667,7.16667c3.95804,0 7.16667,-3.20863 7.16667,-7.16667c0,-3.95804 -3.20863,-7.16667 -7.16667,-7.16667zM107.5,86c-5.93706,0 -10.75,4.81294 -10.75,10.75c0,5.93706 4.81294,10.75 10.75,10.75c5.93706,0 10.75,-4.81294 10.75,-10.75c0,-5.93706 -4.81294,-10.75 -10.75,-10.75zM87.79167,107.5c-4.94755,0 -8.95833,4.01078 -8.95833,8.95833c0,4.94755 4.01078,8.95833 8.95833,8.95833c4.94755,0 8.95833,-4.01078 8.95833,-8.95833c0,-4.94755 -4.01078,-8.95833 -8.95833,-8.95833zM68.08333,125.41667c-3.95804,0 -7.16667,3.20863 -7.16667,7.16667c0,3.95804 3.20863,7.16667 7.16667,7.16667c3.95804,0 7.16667,-3.20863 7.16667,-7.16667c0,-3.95804 -3.20863,-7.16667 -7.16667,-7.16667zM46.58333,132.58333c-3.95804,0 -7.16667,3.20863 -7.16667,7.16667c0,3.95804 3.20863,7.16667 7.16667,7.16667c3.95804,0 7.16667,-3.20863 7.16667,-7.16667c0,-3.95804 -3.20863,-7.16667 -7.16667,-7.16667z" fill="#c5e1a5"></path><path d="M154.08333,14.33333c0,0 -25.08333,-3.58333 -43,28.66667c-17.91667,32.25 -21.5,35.83333 -28.66667,43c-7.16667,7.16667 -43,35.83333 -43,35.83333c0,0 -17.91667,14.33333 -21.5,28.66667c0,0 35.83333,-10.75 75.25,-50.16667c28.66667,-32.25 25.08333,-46.58333 46.58333,-71.66667c7.3745,-8.60358 14.33333,-14.33333 14.33333,-14.33333z" fill="#8bc34a"></path></g></g></svg>