<svg xmlns="http://www.w3.org/2000/svg" viewBox="0 0 50 50" width="50" height="50" preserveAspectRatio="xMidYMid meet" style="width: 100%; height: 100%; transform: translate3d(0px, 0px, 0px);"><defs><clipPath id="__lottie_element_42"><rect width="50" height="50" x="0" y="0"></rect></clipPath></defs><g clip-path="url(#__lottie_element_42)"><g transform="matrix(1,0,0,1,0,0)" opacity="1" style="display: block;"><path fill="rgb(0,0,0)" fill-opacity="1" d=" M3,18 C3,18 15,18 15,18 C15,18 15,49 15,49 C15,49 3,49 3,49 C3,49 3,18 3,18z"></path><g opacity="1" transform="matrix(1,0,0,1,9,33.5)"><path stroke-linecap="round" stroke-linejoin="miter" fill-opacity="0" stroke-miterlimit="10" stroke="rgb(0,0,0)" stroke-opacity="1" stroke-width="2" d=" M-6,-15.5 C-6,-15.5 6,-15.5 6,-15.5 C6,-15.5 6,15.5 6,15.5 C6,15.5 -6,15.5 -6,15.5 C-6,15.5 -6,-15.5 -6,-15.5z"></path></g></g><g transform="matrix(1,0,0,1,0,0)" opacity="1" style="display: block;"><path fill="rgb(0,0,0)" fill-opacity="1" d=" M19,28.16 C19,28.16 31,28.16 31,28.16 C31,28.16 31,49 31,49 C31,49 19,49 19,49 C19,49 19,28.16 19,28.16z"></path><g opacity="1" transform="matrix(1,0,0,1,25,39)"><path stroke-linecap="round" stroke-linejoin="miter" fill-opacity="0" stroke-miterlimit="10" stroke="rgb(0,0,0)" stroke-opacity="1" stroke-width="2" d=" M-6,-10.839198112487793 C-6,-10.839198112487793 6,-10.839198112487793 6,-10.839198112487793 C6,-10.839198112487793 6,10 6,10 C6,10 -6,10 -6,10 C-6,10 -6,-10.839198112487793 -6,-10.839198112487793z"></path></g></g><g transform="matrix(1,0,0,1,0,0)" opacity="1" style="display: block;"><path fill="rgb(0,0,0)" fill-opacity="1" d=" M35,2.22 C35,2.22 47,2.22 47,2.22 C47,2.22 47,49 47,49 C47,49 35,49 35,49 C35,49 35,2.22 35,2.22z"></path><g opacity="1" transform="matrix(1,0,0,1,41,27)"><path stroke-linecap="round" stroke-linejoin="miter" fill-opacity="0" stroke-miterlimit="10" stroke="rgb(0,0,0)" stroke-opacity="1" stroke-width="2" d=" M-6,-24.784896850585938 C-6,-24.784896850585938 6,-24.784896850585938 6,-24.784896850585938 C6,-24.784896850585938 6,22 6,22 C6,22 -6,22 -6,22 C-6,22 -6,-24.784896850585938 -6,-24.784896850585938z"></path></g></g><g class="2" transform="matrix(1,0,0,1,0,0)" opacity="1" style="display: none;"><g opacity="1" transform="matrix(1,0,0,1,9,33.5)"><path stroke-linecap="round" stroke-linejoin="miter" fill-opacity="0" stroke-miterlimit="10" stroke="rgb(0,0,0)" stroke-opacity="1" stroke-width="2" d=" M-6,-15.5 C-6,-15.5 6,-15.5 6,-15.5 C6,-15.5 6,15.5 6,15.5 C6,15.5 -6,15.5 -6,15.5 C-6,15.5 -6,-15.5 -6,-15.5z"></path><path fill="rgb(0,0,0)" fill-opacity="1" d=" M-6,-15.5 C-6,-15.5 6,-15.5 6,-15.5 C6,-15.5 6,15.5 6,15.5 C6,15.5 -6,15.5 -6,15.5 C-6,15.5 -6,-15.5 -6,-15.5z"></path></g></g><g class="2" transform="matrix(1,0,0,1,0,0)" opacity="1" style="display: none;"><path fill="rgb(0,0,0)" fill-opacity="1" d=" M19,29 C19,29 31,29 31,29 C31,29 31,49 31,49 C31,49 19,49 19,49 C19,49 19,29 19,29z"></path><g opacity="1" transform="matrix(1,0,0,1,25,39)"><path stroke-linecap="round" stroke-linejoin="miter" fill-opacity="0" stroke-miterlimit="10" stroke="rgb(0,0,0)" stroke-opacity="1" stroke-width="2" d=" M-6,-10 C-6,-10 6,-10 6,-10 C6,-10 6,10 6,10 C6,10 -6,10 -6,10 C-6,10 -6,-10 -6,-10z"></path></g></g><g class="2" transform="matrix(1,0,0,1,0,0)" opacity="1" style="display: none;"><g opacity="1" transform="matrix(1,0,0,1,41,27)"><path fill="rgb(0,0,0)" fill-opacity="1" d=" M-6,-22 C-6,-22 6,-22 6,-22 C6,-22 6,22 6,22 C6,22 -6,22 -6,22 C-6,22 -6,-22 -6,-22z"></path><path stroke-linecap="round" stroke-linejoin="miter" fill-opacity="0" stroke-miterlimit="10" stroke="rgb(0,0,0)" stroke-opacity="1" stroke-width="2" d=" M-6,-22 C-6,-22 6,-22 6,-22 C6,-22 6,22 6,22 C6,22 -6,22 -6,22 C-6,22 -6,-22 -6,-22z"></path></g></g></g></svg>