<svg version="1.1" xmlns="http://www.w3.org/2000/svg" xmlns:xlink="http://www.w3.org/1999/xlink" viewBox="0 0 172 172"><g fill="none" fill-rule="nonzero" stroke="none" stroke-width="1" stroke-linecap="butt" stroke-linejoin="miter" stroke-miterlimit="10" stroke-dasharray="" stroke-dashoffset="0" font-family="none" font-weight="none" font-size="none" text-anchor="none" style="mix-blend-mode: normal"><path d="M0,172v-172h172v172z" fill="none"></path><g fill="#000000"><path d="M86,14.33333c-39.517,0 -71.66667,32.14967 -71.66667,71.66667c0,39.517 32.14967,71.66667 71.66667,71.66667c39.517,0 71.66667,-32.14967 71.66667,-71.66667c0,-39.517 -32.14967,-71.66667 -71.66667,-71.66667zM51.95833,125.41667c-1.376,0 -2.752,-0.52317 -3.80192,-1.57308c-2.09983,-2.09983 -2.09983,-5.504 0,-7.60025l18.318,-18.31442l7.60025,7.60025l-18.318,18.31442c-1.04633,1.04992 -2.42233,1.57308 -3.79833,1.57308zM129.07883,74.304l-24.54583,14.02517l-6.34608,15.86342c-1.38675,3.46508 -5.86233,4.38242 -8.49967,1.74508l-23.62492,-23.62492c-2.63733,-2.63733 -1.72,-7.11292 1.74508,-8.49967l15.86342,-6.34608l14.02517,-24.54583c2.27542,-3.98108 7.71133,-4.7085 10.95425,-1.46558l21.89417,21.89417c3.24292,3.23933 2.5155,8.67883 -1.46558,10.95425z"></path></g></g></svg>