<svg version="1.1" xmlns="http://www.w3.org/2000/svg" xmlns:xlink="http://www.w3.org/1999/xlink" viewBox="0 0 172 172"><g fill="none" fill-rule="nonzero" stroke="none" stroke-width="1" stroke-linecap="butt" stroke-linejoin="miter" stroke-miterlimit="10" stroke-dasharray="" stroke-dashoffset="0" font-family="none" font-weight="none" font-size="none" text-anchor="none" style="mix-blend-mode: normal"><path d="M0,172v-172h172v172z" fill="none"></path><g><path d="M82.41667,129v28.66667h7.16667v-28.66667z" fill="#328636"></path><path d="M100.33333,70.96075c0,29.74525 -14.33333,61.447 -14.33333,61.447c0,0 -14.33333,-30.13583 -14.33333,-61.447c0,-31.31117 14.33333,-63.79408 14.33333,-63.79408c0,0 14.33333,34.04883 14.33333,63.79408zM59.32567,146.33258c13.932,-2.33992 26.67433,-13.74925 26.67433,-13.74925c0,0 -15.12883,-5.37142 -29.46217,-3.0315c-14.33333,2.33992 -27.87117,13.65967 -27.87117,13.65967c0,0 17.12117,5.46458 30.659,3.12108z" fill="#4caf50"></path><path d="M59.32567,146.33258c13.932,-2.33992 26.67433,-13.74925 26.67433,-13.74925l-57.33333,10.62817c0,0 17.12117,5.46458 30.659,3.12108z" fill="#328636"></path><path d="M40.55617,121.24567c19.64025,10.16592 45.44383,11.33767 45.44383,11.33767c0,0 -15.02133,-19.93767 -35.432,-30.88117c-20.41067,-10.9435 -46.98467,-12.11883 -46.98467,-12.11883c0,0 17.329,21.5 36.97283,31.66233z" fill="#4caf50"></path><path d="M40.55617,121.24567c19.64025,10.16592 45.44383,11.33767 45.44383,11.33767l-82.41667,-43c0,0 17.329,21.5 36.97283,31.66233z" fill="#328636"></path><path d="M46.15692,91.97342c14.5555,23.091 39.84308,40.60992 39.84308,40.60992c0,0 -4.59742,-29.85992 -19.92333,-54.14775c-15.32592,-24.28783 -40.99333,-42.60225 -40.99333,-42.60225c0,0 6.89792,33.0455 21.07358,56.14008z" fill="#4caf50"></path><path d="M46.15692,91.97342c14.5555,23.091 39.84308,40.60992 39.84308,40.60992l-60.91667,-96.75c0,0 6.89792,33.0455 21.07358,56.14008z" fill="#328636"></path><path d="M143.33333,143.2115c0,0 -13.53783,-11.31617 -27.87117,-13.65967c-14.33333,-2.3435 -29.46217,3.0315 -29.46217,3.0315c0,0 12.74233,11.40933 26.67433,13.74925c13.53783,2.3435 30.659,-3.12108 30.659,-3.12108z" fill="#4caf50"></path><path d="M143.33333,143.2115l-57.33333,-10.62817c0,0 12.74233,11.40933 26.67433,13.74925c13.53783,2.3435 30.659,-3.12108 30.659,-3.12108z" fill="#328636"></path><path d="M168.41667,89.58333c0,0 -26.574,1.17175 -46.98467,12.11883c-20.41067,10.9435 -35.432,30.88117 -35.432,30.88117c0,0 25.80358,-1.17175 45.44383,-11.33767c19.64383,-10.16233 36.97283,-31.66233 36.97283,-31.66233z" fill="#4caf50"></path><path d="M168.41667,89.58333l-82.41667,43c0.08242,0.60558 25.82867,-0.99617 45.44383,-11.33767c19.64383,-10.16233 36.97283,-31.66233 36.97283,-31.66233z" fill="#328636"></path><path d="M146.91667,35.83333c0,0 -25.671,18.31442 -40.99333,42.60225c-15.32233,24.28783 -19.92333,54.14775 -19.92333,54.14775c0,0 25.28758,-17.51892 39.84308,-40.60992c14.17567,-23.09458 21.07358,-56.14008 21.07358,-56.14008z" fill="#4caf50"></path><path d="M146.91667,35.83333l-60.91667,96.75c0,0 25.28758,-17.51892 39.84308,-40.60992c14.17567,-23.09458 21.07358,-56.14008 21.07358,-56.14008zM86,7.16667v125.24108c0,0 14.33333,-31.70175 14.33333,-61.447c0,-29.74525 -14.33333,-63.79408 -14.33333,-63.79408z" fill="#328636"></path></g></g></svg>